<?xml version="1.0" standalone="no"?>
<!DOCTYPE svg PUBLIC "-//W3C//DTD SVG 20010904//EN"
 "http://www.w3.org/TR/2001/REC-SVG-20010904/DTD/svg10.dtd">
<svg version="1.0" xmlns="http://www.w3.org/2000/svg"
 width="594.000000pt" height="594.000000pt" viewBox="0 0 594.000000 594.000000"
 preserveAspectRatio="xMidYMid meet">
<metadata>
Created by potrace 1.11, written by Peter Selinger 2001-2013
</metadata>
<g transform="translate(0.000000,594.000000) scale(0.100000,-0.100000)"
fill="#000000" stroke="none">
<path d="M2727 5924 c-242 -44 -494 -166 -711 -343 -94 -77 -267 -257 -344
-358 -365 -480 -600 -1126 -667 -1837 -20 -208 -20 -624 0 -832 67 -711 302
-1357 667 -1837 77 -101 250 -281 344 -358 221 -181 470 -300 719 -343 118
-21 352 -21 470 0 249 43 498 162 719 343 94 77 267 257 344 358 365 480 600
1126 667 1837 20 208 20 624 0 832 -67 711 -302 1357 -667 1837 -77 101 -250
281 -344 358 -221 181 -470 300 -719 343 -112 20 -369 19 -478 0z"/>
</g>
</svg>
